<svg xmlns="http://www.w3.org/2000/svg" width="18.833" height="17.063" viewBox="0 0 18.833 17.063">
  <g id="Group_14" data-name="Group 14" transform="translate(2734.246 303.569)">
    <path id="Icon_metro-money" data-name="Icon metro-money" d="M15.887,13.915c-2.152-.559-2.844-1.133-2.844-2.033,0-1.033.953-1.758,2.559-1.758,1.687,0,2.313.806,2.37,1.991h2.095A3.774,3.774,0,0,0,17.025,8.5V6.427H14.181V8.474c-1.839.4-3.318,1.588-3.318,3.422,0,2.19,1.815,3.28,4.455,3.915,2.375.569,2.844,1.4,2.844,2.289,0,.649-.46,1.692-2.559,1.692-1.953,0-2.725-.877-2.825-1.991h-2.09a3.98,3.98,0,0,0,3.493,3.631v2.057h2.844V21.451c1.844-.355,3.318-1.422,3.318-3.37,0-2.683-2.3-3.6-4.455-4.166Z" transform="translate(-2735.755 -309.995)" fill="#fcfaf1"/>
    <path id="Icon_ionic-md-add" data-name="Icon ionic-md-add" d="M14.718,11.265H11.265v3.453H10.2V11.265H6.75V10.2H10.2V6.75h1.062V10.2h3.453Z" transform="translate(-2740.996 -307.319)" fill="#fcfaf1"/>
  </g>
</svg>
