<svg xmlns="http://www.w3.org/2000/svg" width="23.1" height="17.94" viewBox="0 0 23.1 17.94">
  <g id="Group_13" data-name="Group 13" transform="translate(2734.37 267.239)">
    <path id="Icon_awesome-user-alt" data-name="Icon awesome-user-alt" d="M8.97,10.091A5.046,5.046,0,1,0,3.924,5.046,5.047,5.047,0,0,0,8.97,10.091Zm4.485,1.121H11.524a6.1,6.1,0,0,1-5.109,0H4.485A4.485,4.485,0,0,0,0,15.7v.561A1.682,1.682,0,0,0,1.682,17.94H16.258a1.682,1.682,0,0,0,1.682-1.682V15.7A4.485,4.485,0,0,0,13.455,11.212Z" transform="translate(-2729.21 -267.239)" fill="#30302e"/>
    <path id="Icon_ionic-md-add" data-name="Icon ionic-md-add" d="M14.718,11.265H11.265v3.453H10.2V11.265H6.75V10.2H10.2V6.75h1.062V10.2h3.453Z" transform="translate(-2741.12 -271.179)" fill="#30302e"/>
  </g>
</svg>
