<svg xmlns="http://www.w3.org/2000/svg" width="27.468" height="18.694" viewBox="0 0 27.468 18.694">
  <g id="Group_12" data-name="Group 12" transform="translate(2737.958 231.663)">
    <path id="Icon_awesome-gift" data-name="Icon awesome-gift" d="M1.219,18.094a1.217,1.217,0,0,0,1.219,1.219H8.531V13.219H1.219Zm9.75,1.219h6.094a1.217,1.217,0,0,0,1.219-1.219V13.219H10.969ZM18.281,7.125h-1.6A3.321,3.321,0,0,0,17.062,5.6,3.357,3.357,0,0,0,13.711,2.25c-1.584,0-2.609.811-3.923,2.6-1.314-1.79-2.338-2.6-3.923-2.6A3.357,3.357,0,0,0,2.514,5.6,3.274,3.274,0,0,0,2.9,7.125H1.219A1.217,1.217,0,0,0,0,8.344v3.047A.611.611,0,0,0,.609,12H18.891a.611.611,0,0,0,.609-.609V8.344A1.217,1.217,0,0,0,18.281,7.125Zm-12.42,0a1.523,1.523,0,0,1,0-3.047c.758,0,1.318.126,3.279,3.047H5.861Zm7.85,0H10.432c1.958-2.914,2.5-3.047,3.279-3.047a1.523,1.523,0,0,1,0,3.047Z" transform="translate(-2729.99 -232.281)" fill="#30302e"/>
    <path id="Icon_ionic-md-add" data-name="Icon ionic-md-add" d="M14.718,11.265H11.265v3.453H10.2V11.265H6.75V10.2H10.2V6.75h1.062V10.2h3.453Z" transform="translate(-2744.708 -238.413)" fill="#30302e"/>
  </g>
</svg>
