<svg xmlns="http://www.w3.org/2000/svg" width="22.452" height="19.953" viewBox="0 0 22.452 19.953">
  <path id="Icon_awesome-edit" data-name="Icon awesome-edit" d="M15.693,3.246l3.516,3.516a.381.381,0,0,1,0,.538L10.7,15.813l-3.617.4a.758.758,0,0,1-.838-.838l.4-3.617,8.513-8.513A.381.381,0,0,1,15.693,3.246Zm6.315-.893-1.9-1.9a1.524,1.524,0,0,0-2.152,0l-1.38,1.38a.381.381,0,0,0,0,.538L18.2,4,20.09,5.885a.381.381,0,0,0,.538,0l1.38-1.38a1.524,1.524,0,0,0,0-2.152ZM14.968,13.5v3.968H2.495V4.992h8.957a.479.479,0,0,0,.331-.136L13.342,3.3a.468.468,0,0,0-.331-.8H1.871A1.871,1.871,0,0,0,0,4.369V18.089A1.871,1.871,0,0,0,1.871,19.96H15.591a1.871,1.871,0,0,0,1.871-1.871V11.938a.469.469,0,0,0-.8-.331L15.1,13.166A.479.479,0,0,0,14.968,13.5Z" transform="translate(0 -0.007)" fill="#30302e"/>
</svg>
