<svg xmlns="http://www.w3.org/2000/svg" width="17.94" height="14.576" viewBox="0 0 17.94 14.576">
  <path id="Icon_awesome-list-ul" data-name="Icon awesome-list-ul" d="M1.682,3.375A1.682,1.682,0,1,0,3.364,5.057,1.682,1.682,0,0,0,1.682,3.375Zm0,5.606a1.682,1.682,0,1,0,1.682,1.682A1.682,1.682,0,0,0,1.682,8.981Zm0,5.606a1.682,1.682,0,1,0,1.682,1.682,1.682,1.682,0,0,0-1.682-1.682Zm15.7.561H6.167a.561.561,0,0,0-.561.561V16.83a.561.561,0,0,0,.561.561H17.379a.561.561,0,0,0,.561-.561V15.709A.561.561,0,0,0,17.379,15.148Zm0-11.212H6.167a.561.561,0,0,0-.561.561V5.617a.561.561,0,0,0,.561.561H17.379a.561.561,0,0,0,.561-.561V4.5A.561.561,0,0,0,17.379,3.936Zm0,5.606H6.167a.561.561,0,0,0-.561.561v1.121a.561.561,0,0,0,.561.561H17.379a.561.561,0,0,0,.561-.561V10.1A.561.561,0,0,0,17.379,9.542Z" transform="translate(0 -3.375)" fill="#fcfaf1"/>
</svg>
