<svg xmlns="http://www.w3.org/2000/svg" width="15.75" height="15.75" viewBox="0 0 15.75 15.75">
  <path id="Icon_awesome-save" data-name="Icon awesome-save" d="M15.256,5.693,12.307,2.744a1.688,1.688,0,0,0-1.193-.494H1.688A1.687,1.687,0,0,0,0,3.938V16.313A1.687,1.687,0,0,0,1.688,18H14.063a1.687,1.687,0,0,0,1.688-1.687V6.886a1.687,1.687,0,0,0-.494-1.193ZM7.875,15.75a2.25,2.25,0,1,1,2.25-2.25A2.25,2.25,0,0,1,7.875,15.75ZM11.25,5.044V8.578A.422.422,0,0,1,10.828,9H2.672a.422.422,0,0,1-.422-.422V4.922A.422.422,0,0,1,2.672,4.5h8.034a.422.422,0,0,1,.3.124l.122.122a.422.422,0,0,1,.124.3Z" transform="translate(0 -2.25)" fill="#30302e"/>
</svg>
