<svg xmlns="http://www.w3.org/2000/svg" width="17.94" height="17.939" viewBox="0 0 17.94 17.939">
  <path id="Icon_ionic-md-settings" data-name="Icon ionic-md-settings" d="M19.157,13.242a5.609,5.609,0,0,0,.046-.9c0-.314-.046-.583-.046-.9l1.926-1.48a.412.412,0,0,0,.092-.583L19.34,6.29a.447.447,0,0,0-.551-.18l-2.294.9a6.676,6.676,0,0,0-1.559-.9l-.321-2.377a.492.492,0,0,0-.459-.359h-3.67a.492.492,0,0,0-.459.359L9.661,6.111a7.768,7.768,0,0,0-1.56.9l-2.294-.9a.43.43,0,0,0-.551.18L3.422,9.385a.542.542,0,0,0,.092.583l1.973,1.48c0,.314-.046.583-.046.9s.046.583.046.9L3.56,14.722a.412.412,0,0,0-.092.583L5.3,18.4a.447.447,0,0,0,.551.18l2.294-.9a6.675,6.675,0,0,0,1.559.9l.367,2.377a.445.445,0,0,0,.459.359H14.2a.492.492,0,0,0,.459-.359l.367-2.377a7.763,7.763,0,0,0,1.559-.9l2.294.9a.43.43,0,0,0,.551-.18L21.267,15.3a.541.541,0,0,0-.092-.583Zm-6.835,2.242a3.14,3.14,0,1,1,3.211-3.139A3.156,3.156,0,0,1,12.322,15.484Z" transform="translate(-3.375 -3.375)"/>
</svg>
