<svg xmlns="http://www.w3.org/2000/svg" width="24.02" height="17.062" viewBox="0 0 24.02 17.062">
  <path id="Icon_awesome-user-friends" data-name="Icon awesome-user-friends" d="M7.206,10.781a4.233,4.233,0,0,0,4.2-4.266A4.2,4.2,0,1,0,3,6.516,4.233,4.233,0,0,0,7.206,10.781ZM10.088,12H9.777a5.728,5.728,0,0,1-5.142,0H4.324A4.357,4.357,0,0,0,0,16.387v1.1a1.815,1.815,0,0,0,1.8,1.828H12.61a1.815,1.815,0,0,0,1.8-1.828v-1.1A4.357,4.357,0,0,0,10.088,12Zm7.926-1.219a3.657,3.657,0,1,0-3.6-3.656A3.631,3.631,0,0,0,18.015,10.781ZM19.816,12h-.143a4.668,4.668,0,0,1-3.318,0h-.143a4.123,4.123,0,0,0-2.09.587,5.618,5.618,0,0,1,1.49,3.8V17.85c0,.084-.019.164-.023.244h6.628a1.815,1.815,0,0,0,1.8-1.828A4.233,4.233,0,0,0,19.816,12Z" transform="translate(0 -2.25)" fill="#fcfaf1"/>
</svg>
